#Comment line ignore any data following # character 
#Hierarchical Translation and Rotation (.htr) file 
[Header]	
#Header keywords are followed by a single value 
FileType HTR		#Single word string
DataType HTRS		#Translation followed by rotation and scale data
FileVersion 1		#integer
NumSegments 64		#integer
NumFrames 3		#integer
DataFrameRate 30		#integer, data frame rate in this file
EulerRotationOrder ZYX
CalibrationUnits mm
RotationUnits Degrees
GlobalAxisofGravity Y
BoneLengthAxis Y
ScaleFactor 1.00
[SegmentNames&Hierarchy]
#CHILD	PARENT
Pinger_Root GLOBAL
Pelvis Pinger_Root
L_Hip Pelvis
R_Hip Pelvis
Rear_Leg01 Pelvis
Spine1 Pelvis
L_Leg01 L_Hip
L_Leg02 L_Leg01
L_Leg03 L_Leg02
L_Foot L_Leg03
L_Toe1_01 L_Foot
L_Toe2_01 L_Foot
L_Toe3_01 L_Foot
planeAlignerLeft L_Foot
L_Toe1_02 L_Toe1_01
L_Toe1_03 L_Toe1_02
L_Toe2_02 L_Toe2_01
L_Toe2_03 L_Toe2_02
L_Toe3_02 L_Toe3_01
L_Toe3_03 L_Toe3_02
planeLockWeightLeft planeAlignerLeft
R_Leg01 R_Hip
R_Leg02 R_Leg01
R_Leg03 R_Leg02
R_Foot R_Leg03
planeAlignerRight R_Foot
R_Toe1_01 R_Foot
R_Toe2_01 R_Foot
R_Toe3_01 R_Foot
planeLockWeightRight planeAlignerRight
R_Toe1_02 R_Toe1_01
R_Toe1_03 R_Toe1_02
R_Toe2_02 R_Toe2_01
R_Toe2_03 R_Toe2_02
R_Toe3_02 R_Toe3_01
R_Toe3_03 R_Toe3_02
Rear_Leg02 Rear_Leg01
Rear_Leg03 Rear_Leg02
Rear_Leg04 Rear_Leg03
Rear_Foot Rear_Leg04
planeAlignerCenter Rear_Foot
Rear_Toe1_01 Rear_Foot
Rear_Toe2_01 Rear_Foot
Rear_Toe3_01 Rear_Foot
planeLockWeightCenter planeAlignerCenter
Rear_Toe1_02 Rear_Toe1_01
Rear_Toe1_03 Rear_Toe1_02
Rear_Toe2_02 Rear_Toe2_01
Rear_Toe2_03 Rear_Toe2_02
Rear_Toe3_02 Rear_Toe3_01
Rear_Toe3_03 Rear_Toe3_02
Back_Bone Spine1
Head Spine1
Motor_Bone Back_Bone
Ping_Mechanism Back_Bone
BN_LookIK Head
bottomMouth Head
L_Mouth01 Head
L_mouthFront Head
mouthGun Head
R_Mouth01 Head
R_mouthFront Head
TopMouth Head
weapon_bone Head
[BasePosition]
#SegmentName Tx, Ty, Tz, Rx, Ry, Rz, BoneLength
Pinger_Root 0.000000 0.000000 0.000000 -90.000000 0.000000 0.000000 10.000000 
Pelvis 0.000000 0.000000 0.000000 0.000000 0.000000 0.000000 10.000000 
L_Hip 0.000000 0.000000 0.000000 0.000000 0.000000 0.000000 10.000000 
R_Hip 0.000000 0.000000 0.000000 0.000000 0.000000 0.000000 10.000000 
Rear_Leg01 0.000000 0.000000 0.000000 0.000000 0.000000 0.000000 10.000000 
Spine1 0.000000 0.000000 0.000000 0.000000 0.000000 0.000000 10.000000 
L_Leg01 0.000000 0.000000 0.000000 0.000000 0.000000 0.000000 10.000000 
L_Leg02 0.000000 0.000000 0.000000 0.000000 0.000000 0.000000 10.000000 
L_Leg03 0.000000 0.000000 0.000000 0.000000 0.000000 0.000000 10.000000 
L_Foot 0.000000 0.000000 0.000000 0.000000 0.000000 0.000000 10.000000 
L_Toe1_01 0.000000 0.000000 0.000000 0.000000 0.000000 0.000000 10.000000 
L_Toe2_01 0.000000 0.000000 0.000000 0.000000 0.000000 0.000000 10.000000 
L_Toe3_01 0.000000 0.000000 0.000000 0.000000 0.000000 0.000000 10.000000 
planeAlignerLeft 0.000000 0.000000 0.000000 0.000000 0.000000 0.000000 10.000000 
L_Toe1_02 0.000000 0.000000 0.000000 0.000000 0.000000 0.000000 10.000000 
L_Toe1_03 0.000000 0.000000 0.000000 0.000000 0.000000 0.000000 10.000000 
L_Toe2_02 0.000000 0.000000 0.000000 0.000000 0.000000 0.000000 10.000000 
L_Toe2_03 0.000000 0.000000 0.000000 0.000000 0.000000 0.000000 10.000000 
L_Toe3_02 0.000000 0.000000 0.000000 0.000000 0.000000 0.000000 10.000000 
L_Toe3_03 0.000000 0.000000 0.000000 0.000000 0.000000 0.000000 10.000000 
planeLockWeightLeft 0.000000 0.000000 0.000000 0.000000 0.000000 0.000000 10.000000 
R_Leg01 0.000000 0.000000 0.000000 0.000000 0.000000 0.000000 10.000000 
R_Leg02 0.000000 0.000000 0.000000 0.000000 0.000000 0.000000 10.000000 
R_Leg03 0.000000 0.000000 0.000000 0.000000 0.000000 0.000000 10.000000 
R_Foot 0.000000 0.000000 0.000000 0.000000 0.000000 0.000000 10.000000 
planeAlignerRight 0.000000 0.000000 0.000000 0.000000 0.000000 0.000000 10.000000 
R_Toe1_01 0.000000 0.000000 0.000000 0.000000 0.000000 0.000000 10.000000 
R_Toe2_01 0.000000 0.000000 0.000000 0.000000 0.000000 0.000000 10.000000 
R_Toe3_01 0.000000 0.000000 0.000000 0.000000 0.000000 0.000000 10.000000 
planeLockWeightRight 0.000000 0.000000 0.000000 0.000000 0.000000 0.000000 10.000000 
R_Toe1_02 0.000000 0.000000 0.000000 0.000000 0.000000 0.000000 10.000000 
R_Toe1_03 0.000000 0.000000 0.000000 0.000000 0.000000 0.000000 10.000000 
R_Toe2_02 0.000000 0.000000 0.000000 0.000000 0.000000 0.000000 10.000000 
R_Toe2_03 0.000000 0.000000 0.000000 0.000000 0.000000 0.000000 10.000000 
R_Toe3_02 0.000000 0.000000 0.000000 0.000000 0.000000 0.000000 10.000000 
R_Toe3_03 0.000000 0.000000 0.000000 0.000000 0.000000 0.000000 10.000000 
Rear_Leg02 0.000000 0.000000 0.000000 0.000000 0.000000 0.000000 10.000000 
Rear_Leg03 0.000000 0.000000 0.000000 0.000000 0.000000 0.000000 10.000000 
Rear_Leg04 0.000000 0.000000 0.000000 0.000000 0.000000 0.000000 10.000000 
Rear_Foot 0.000000 0.000000 0.000000 0.000000 0.000000 0.000000 10.000000 
planeAlignerCenter 0.000000 0.000000 0.000000 0.000000 0.000000 0.000000 10.000000 
Rear_Toe1_01 0.000000 0.000000 0.000000 0.000000 0.000000 0.000000 10.000000 
Rear_Toe2_01 0.000000 0.000000 0.000000 0.000000 0.000000 0.000000 10.000000 
Rear_Toe3_01 0.000000 0.000000 0.000000 0.000000 0.000000 0.000000 10.000000 
planeLockWeightCenter 0.000000 0.000000 0.000000 0.000000 0.000000 0.000000 10.000000 
Rear_Toe1_02 0.000000 0.000000 0.000000 0.000000 0.000000 0.000000 10.000000 
Rear_Toe1_03 0.000000 0.000000 0.000000 0.000000 0.000000 0.000000 10.000000 
Rear_Toe2_02 0.000000 0.000000 0.000000 0.000000 0.000000 0.000000 10.000000 
Rear_Toe2_03 0.000000 0.000000 0.000000 0.000000 0.000000 0.000000 10.000000 
Rear_Toe3_02 0.000000 0.000000 0.000000 0.000000 0.000000 0.000000 10.000000 
Rear_Toe3_03 0.000000 0.000000 0.000000 0.000000 0.000000 0.000000 10.000000 
Back_Bone 0.000000 0.000000 0.000000 0.000000 0.000000 0.000000 10.000000 
Head 0.000000 0.000000 0.000000 0.000000 0.000000 0.000000 10.000000 
Motor_Bone 0.000000 0.000000 0.000000 0.000000 0.000000 0.000000 10.000000 
Ping_Mechanism 0.000000 0.000000 0.000000 0.000000 0.000000 0.000000 10.000000 
BN_LookIK 0.000000 0.000000 0.000000 0.000000 0.000000 0.000000 10.000000 
bottomMouth 0.000000 0.000000 0.000000 0.000000 0.000000 0.000000 10.000000 
L_Mouth01 0.000000 0.000000 0.000000 0.000000 0.000000 0.000000 10.000000 
L_mouthFront 0.000000 0.000000 0.000000 0.000000 0.000000 0.000000 10.000000 
mouthGun 0.000000 0.000000 0.000000 0.000000 0.000000 0.000000 10.000000 
R_Mouth01 0.000000 0.000000 0.000000 0.000000 0.000000 0.000000 10.000000 
R_mouthFront 0.000000 0.000000 0.000000 0.000000 0.000000 0.000000 10.000000 
TopMouth 0.000000 0.000000 0.000000 0.000000 0.000000 0.000000 10.000000 
weapon_bone 0.000000 0.000000 0.000000 0.000000 0.000000 0.000000 10.000000 
#Beginning of Data. Separated by tabs
#Fr	Tx	Ty	Tz	Rx	Ry	Rz	SF
[Pinger_Root]
14 0.000000 0.000248 0.000000 -0.000075 -0.000000 -0.000020 0.000248
15 0.000000 0.000267 0.000000 -0.000075 -0.000000 -0.000020 0.000267
16 0.000000 0.000286 0.000000 -0.000075 -0.000000 -0.000020 0.000286
[Pelvis]
14 -62.849060 1616.684937 4328.511719 -42.406158 -79.999290 37.288521 4620.999023
15 -6.431769 1810.248169 4423.554199 -46.954594 -81.455391 41.196247 4779.631348
16 50.411304 2006.065430 4535.107910 -57.630062 -82.037552 51.273521 4959.238281
[L_Hip]
14 5.766392 125.831482 872.656799 164.247208 -71.686340 107.383766 881.701050
15 5.766392 125.831482 872.656799 166.269760 -74.177727 104.649368 881.701050
16 5.766392 125.831482 872.656799 168.550171 -76.217369 101.868660 881.701050
[R_Hip]
14 5.765438 125.836372 -872.654907 26.855448 73.682281 114.491699 881.699829
15 5.765438 125.836372 -872.654907 23.390007 75.681160 111.306618 881.699829
16 5.765438 125.836372 -872.654907 18.872986 77.617081 107.068718 881.699829
[Rear_Leg01]
14 -192.298416 -925.602966 -0.001907 177.934921 10.570182 -146.366089 945.367432
15 -192.298416 -925.602966 -0.001907 177.661148 9.524937 -138.271133 945.367432
16 -192.298416 -925.602966 -0.001907 177.661163 8.792827 -130.117264 945.367432
[Spine1]
14 290.604584 5.007505 0.000477 2.095051 -8.619050 20.214693 290.647736
15 290.604584 5.007505 0.000477 3.285708 -7.617178 21.023258 290.647736
16 290.604584 5.007505 0.000477 4.515049 -6.603683 20.841284 290.647736
[L_Leg01]
14 761.932007 -0.002384 -0.069261 40.794315 -40.879143 -44.864456 761.932068
15 761.932007 -0.002384 -0.069261 45.969257 -37.856953 -49.638638 761.932068
16 761.932007 -0.002384 -0.069261 50.037212 -34.665302 -53.454571 761.932068
[L_Leg02]
14 1441.140503 -0.000954 -0.000715 1.824482 -0.283347 -129.781357 1441.140503
15 1441.140503 -0.000954 -0.000715 1.443541 -0.232522 -127.201241 1441.140503
16 1441.140503 -0.000954 -0.000715 0.916551 -0.148905 -123.196632 1441.140503
[L_Leg03]
14 1686.963989 -0.000715 -0.000954 -0.007994 0.001558 112.054886 1686.963989
15 1686.963989 -0.000715 -0.000954 -0.004568 0.000853 111.162674 1686.963989
16 1686.963989 -0.000715 -0.000954 -0.001132 0.000202 110.270363 1686.963989
[L_Foot]
14 3041.570068 -30.715107 11.297464 6.285952 14.722048 66.756630 3041.746094
15 3041.570068 -30.715107 11.297464 4.138199 15.006493 67.902275 3041.746094
16 3041.570068 -30.715107 11.297464 0.418918 15.297445 67.462578 3041.746094
[L_Toe1_01]
14 -188.216690 -224.732346 -21.137953 100.255760 -6.852807 -171.967545 293.899567
15 -188.216690 -224.732346 -21.137953 100.175560 -6.545517 -171.796066 293.899567
16 -188.216690 -224.732346 -21.137953 98.916565 -5.804098 -171.246872 293.899567
[L_Toe2_01]
14 200.746536 -219.926590 148.838394 -87.094772 -25.442991 -52.650547 332.896027
15 200.746536 -219.926590 148.838394 -86.358116 -24.774601 -52.198654 332.896027
16 200.746536 -219.926590 148.838394 -84.892670 -23.170303 -51.043552 332.896027
[L_Toe3_01]
14 188.832520 -219.859131 -191.078659 -111.360222 10.973054 -66.853363 347.140900
15 188.832520 -219.859131 -191.078659 -111.910202 11.107620 -65.497078 347.140900
16 188.832520 -219.859131 -191.078659 -111.488602 11.827229 -62.190525 347.140900
[planeAlignerLeft]
14 32.990112 -593.018433 101.086655 169.306686 -76.298271 89.968506 602.476318
15 30.296936 -592.629639 96.241463 169.270752 -77.059258 90.585548 601.157349
16 23.409740 -592.089355 83.978371 169.214737 -79.017654 92.141350 598.473206
[L_Toe1_02]
14 413.761139 0.000477 0.000000 0.001384 -25.965801 0.001384 413.761139
15 413.761139 0.000477 0.000000 0.001384 -25.962173 0.001384 413.761139
16 413.761139 0.000477 0.000000 0.001388 -25.505808 0.001388 413.761139
[L_Toe1_03]
14 464.317322 0.000358 -0.000089 0.003734 53.359097 0.003734 464.317322
15 464.317322 0.000358 -0.000089 0.003963 55.544956 0.003963 464.317322
16 464.317322 0.000358 -0.000089 0.004637 60.676929 0.004637 464.317322
[L_Toe2_02]
14 342.235809 -0.000477 0.000238 0.001188 -72.402016 0.001188 342.235809
15 342.235809 -0.000477 0.000238 0.001187 -72.837753 0.001187 342.235809
16 342.235809 -0.000477 0.000238 0.001185 -73.987679 0.001185 342.235809
[L_Toe2_03]
14 420.210846 -0.000715 0.000000 0.029090 85.375511 0.029090 420.210846
15 420.210846 -0.000715 0.000000 -0.020928 86.565384 -0.017430 420.210846
16 420.210846 -0.000715 0.000000 0.000000 89.508621 0.003492 420.210846
[L_Toe3_02]
14 329.270111 0.000954 0.000000 0.001178 -80.618774 0.001178 329.270111
15 329.270111 0.000954 0.000000 0.001178 -80.629440 0.001178 329.270111
16 329.270111 0.000954 0.000000 0.001177 -80.917770 0.001177 329.270111
[L_Toe3_03]
14 439.137451 -0.001907 0.000954 -179.995956 78.605698 -179.992447 439.137451
15 439.137451 -0.001907 0.000954 -179.996246 78.012581 -179.992737 439.137451
16 439.137451 -0.001907 0.000954 -179.996841 76.599411 -179.993317 439.137451
[planeLockWeightLeft]
14 -0.001068 0.000000 -0.000296 -0.011826 -0.004376 0.005620 0.001108
15 -0.001068 0.000000 -0.000296 -0.011826 -0.004376 0.005620 0.001108
16 -0.001068 0.000000 -0.000296 -0.011826 -0.004376 0.005620 0.001108
[R_Leg01]
14 761.455627 -0.001907 -0.000358 103.816223 -42.682682 47.643879 761.455688
15 761.455627 -0.001907 -0.000358 101.137115 -38.063705 55.907288 761.455688
16 761.455627 -0.001907 -0.000358 99.258957 -34.388432 62.505062 761.455688
[R_Leg02]
14 1441.140625 0.000000 -0.000238 -1.095628 0.153250 -153.128677 1441.140625
15 1441.140625 0.000000 -0.000238 -0.752032 0.129345 -143.834930 1441.140625
16 1441.140625 0.000000 -0.000238 -0.465307 0.084997 -135.967804 1441.140625
[R_Leg03]
14 1686.963989 0.000954 0.001431 -0.004584 0.000758 108.778412 1686.963989
15 1686.963989 0.000954 0.001431 -0.014522 0.005518 105.595192 1686.963989
16 1686.963989 0.000954 0.001431 -0.024657 0.009881 103.147346 1686.963989
[R_Foot]
14 3041.560059 -30.531288 -11.204481 17.740341 -22.615891 82.035408 3041.734131
15 3041.560059 -30.531288 -11.204481 15.649948 -22.652769 83.220360 3041.734131
16 3041.560059 -30.531288 -11.204481 14.063130 -22.609968 84.388954 3041.734131
[planeAlignerRight]
14 -2.352757 -524.679993 1.048128 0.000000 -89.951546 -90.004936 524.686340
15 -0.296480 -472.583679 0.103913 0.000000 -89.965736 -90.004951 472.583801
16 -0.308990 -484.901337 0.102844 0.000000 -89.951546 -90.004936 484.901459
[R_Toe1_01]
14 -188.383347 -224.864899 21.052242 91.433342 2.284660 -172.061783 294.101532
15 -188.383347 -224.864899 21.052242 91.007095 2.309029 -175.930557 294.101532
16 -188.383347 -224.864899 21.052242 90.801125 2.240766 -175.039139 294.101532
[R_Toe2_01]
14 200.637817 -220.002121 -148.787384 -97.582901 14.479424 -36.982109 332.857574
15 200.637817 -220.002121 -148.787384 -97.129089 15.075264 -32.584969 332.857574
16 200.637817 -220.002121 -148.787384 -97.975014 14.828288 -33.624302 332.857574
[R_Toe3_01]
14 188.606735 -220.092957 191.126343 -77.415352 -17.866756 -38.896801 347.192566
15 188.606735 -220.092957 191.126343 -78.531609 -18.655960 -34.460575 347.192566
16 188.606735 -220.092957 191.126343 -77.961990 -18.397015 -35.508701 347.192566
[planeLockWeightRight]
14 999.999878 0.000340 -0.000073 -0.011823 -0.004379 -0.000027 999.999878
15 999.999878 0.000352 -0.000087 -0.011823 -0.004379 -0.000027 999.999878
16 999.999817 0.000364 -0.000102 -0.011823 -0.004379 -0.000027 999.999817
[R_Toe1_02]
14 413.762085 0.000477 -0.000119 0.001426 -20.744873 0.001426 413.762085
15 413.762085 0.000477 -0.000119 0.001433 -19.940924 0.001433 413.762085
16 413.762085 0.000477 -0.000119 0.001431 -20.252409 0.001431 413.762085
[R_Toe1_03]
14 464.317810 0.000000 0.001088 -0.031800 87.808220 -0.028303 464.317810
15 464.317810 0.000000 0.001088 -179.908539 89.292236 -179.905045 464.317810
16 464.317810 0.000000 0.001088 0.000000 89.876457 0.003498 464.317810
[R_Toe2_02]
14 342.234741 -0.000954 0.000238 -0.002334 -78.889328 -0.002334 342.234741
15 342.234741 -0.000954 0.000238 -0.002333 -79.383331 -0.002333 342.234741
16 342.234741 -0.000954 0.000238 -0.002334 -79.158791 -0.002334 342.234741
[R_Toe2_03]
14 420.210846 0.000715 -0.000268 -179.994812 70.644661 -179.998352 420.210846
15 420.210846 0.000715 -0.000268 -179.995285 67.457001 -179.998840 420.210846
16 420.210846 0.000715 -0.000268 -179.995178 68.237785 -179.998734 420.210846
[R_Toe3_02]
14 329.270355 -0.000477 -0.000954 0.001176 -82.497475 0.001176 329.270355
15 329.270355 -0.000477 -0.000954 0.001176 -83.024696 0.001176 329.270355
16 329.270355 -0.000477 -0.000954 0.001176 -82.787460 0.001176 329.270355
[R_Toe3_03]
14 439.137939 0.000238 0.001431 -179.998611 69.106255 -179.995041 439.137939
15 439.137939 0.000238 0.001431 -179.999023 66.017960 -179.995438 439.137939
16 439.137939 0.000238 0.001431 -179.998932 66.756721 -179.995361 439.137939
[Rear_Leg02]
14 1162.777710 -0.029802 0.005960 0.774944 3.965166 -89.953445 1162.777710
15 1162.777710 -0.029802 0.005960 -0.450015 -3.751724 -83.224022 1162.777710
16 1162.777710 -0.029802 0.005960 1.578884 -11.315584 -86.382385 1162.777710
[Rear_Leg03]
14 607.192505 -0.013351 -0.073195 0.006613 -0.001629 55.886200 607.192505
15 607.192505 -0.013351 -0.073195 0.006596 -0.001695 57.031330 607.192505
16 607.192505 -0.013351 -0.073195 0.006492 -0.002058 63.395069 607.192505
[Rear_Leg04]
14 995.874512 -0.020504 -0.011921 -0.036332 -0.015809 42.970779 995.874573
15 995.874512 -0.020504 -0.011921 -0.036591 -0.015200 44.885258 995.874573
16 995.874512 -0.020504 -0.011921 -0.038325 -0.016987 56.648178 995.874573
[Rear_Foot]
14 3096.176270 -0.067472 -0.041425 58.732830 86.326561 -102.355721 3096.176270
15 3096.176270 -0.067472 -0.041425 -134.702789 85.451836 58.195705 3096.176270
16 3096.176270 -0.067472 -0.041425 -117.357445 77.919640 61.048302 3096.176270
[planeAlignerCenter]
14 2.430325 15.060123 -762.140747 12.240772 -0.001473 179.998184 762.293396
15 2.310763 33.888531 -768.053589 11.559541 -0.001484 179.998184 768.804321
16 2.004815 73.721542 -774.842407 9.811051 -0.001512 179.998199 778.344116
[Rear_Toe1_01]
14 0.653352 83.966492 -371.173737 0.225989 41.338211 90.314957 380.553192
15 0.653352 83.966492 -371.173737 0.284411 51.532124 90.326347 380.553192
16 0.653352 83.966492 -371.173737 0.345607 62.758209 90.333763 380.553192
[Rear_Toe2_01]
14 178.200760 -294.826019 -362.060547 -3.490751 34.038296 -64.028816 499.765686
15 178.200760 -294.826019 -362.060547 -1.962477 38.521488 -63.903866 499.765686
16 178.200760 -294.826019 -362.060547 1.123671 48.671696 -64.234749 499.765686
[Rear_Toe3_01]
14 -153.359680 -308.780914 -362.060852 3.612494 33.212036 -113.013603 499.952881
15 -153.359680 -308.780914 -362.060852 2.917208 37.975769 -113.136719 499.952881
16 -153.359680 -308.780914 -362.060852 0.822602 48.240433 -113.596741 499.952881
[planeLockWeightCenter]
14 1000.000000 0.000610 -0.000134 -0.011814 -0.004373 -0.000015 1000.000000
15 843.750488 0.000305 -0.000172 -0.011814 -0.004373 -0.000015 843.750488
16 500.000824 0.000381 -0.000086 -0.011814 -0.004373 -0.000015 500.000824
[Rear_Toe1_02]
14 379.707825 0.194073 0.000477 -0.000767 -33.624729 0.000838 379.707855
15 379.707825 0.194073 0.000477 -0.000767 -33.624729 0.000838 379.707855
16 379.707825 0.194073 0.000477 -0.000767 -33.624729 0.000838 379.707855
[Rear_Toe1_03]
14 500.129700 0.165701 0.000119 -0.000554 47.028706 0.006962 500.129761
15 500.129700 0.165701 0.000119 -0.000060 52.326374 0.007329 500.129761
16 500.129700 0.165701 0.000119 -0.003957 58.880024 -0.000328 500.129761
[Rear_Toe2_02]
14 340.494507 0.000238 -0.000954 0.001186 -73.527657 0.001186 340.494507
15 340.494507 0.000238 -0.000954 0.001177 -81.560181 0.001177 340.494507
16 340.494507 0.000238 -0.000954 0.000000 -89.629379 -0.002347 340.494507
[Rear_Toe2_03]
14 433.103577 0.000000 0.000238 0.009410 75.670586 0.009410 433.103546
15 433.103577 0.000000 0.000238 179.836914 89.174339 179.836914 433.103546
16 433.103577 0.000000 0.000238 -179.995544 65.123817 -179.999115 433.103546
[Rear_Toe3_02]
14 340.494141 -0.000358 -0.000477 0.001189 -71.448784 0.001189 340.494171
15 340.494141 -0.000358 -0.000477 0.001178 -80.383148 0.001178 340.494171
16 340.494141 -0.000358 -0.000477 0.000000 -89.913773 0.004646 340.494171
[Rear_Toe3_03]
14 433.103577 0.001431 -0.000238 0.007637 72.320320 0.007637 433.103546
15 433.103577 0.001431 -0.000238 -0.042562 88.386024 -0.039065 433.103546
16 433.103577 0.001431 -0.000238 -179.999008 66.147812 -179.995438 433.103546
[Back_Bone]
14 1312.175781 -701.934692 0.000954 -1.742259 3.771451 -91.685249 1488.125488
15 1312.175781 -701.934692 0.000954 -1.933424 3.564874 -90.622246 1488.125488
16 1312.175781 -701.934692 0.000954 -2.128353 3.361872 -89.558769 1488.125488
[Head]
14 1406.159424 809.709290 0.001431 -0.528748 1.290091 9.284676 1622.625488
15 1406.159424 809.709290 0.001431 -0.628303 1.514661 8.999754 1622.625488
16 1406.159424 809.709290 0.001431 -0.735905 1.734682 8.097210 1622.625488
[Motor_Bone]
14 1158.364380 -417.834747 0.000477 -1.689901 -0.361697 -106.346062 1231.419434
15 1158.364380 -417.834747 0.000477 -1.391426 0.000043 -105.983665 1231.419434
16 1158.364380 -417.834747 0.000477 -1.019826 2.826947 -103.158119 1231.419434
[Ping_Mechanism]
14 1241.921265 -443.311737 42.274673 0.000103 -0.000053 82.120995 1319.348755
15 1239.894043 -443.887909 34.456181 0.000103 -0.000053 82.120995 1317.406860
16 1242.648438 -446.132172 27.174660 0.000103 -0.000053 82.120995 1320.586182
[BN_LookIK]
14 193.241119 1380.371704 -0.002861 0.000000 89.965736 -31.038179 1393.832153
15 193.241119 1380.371704 -0.002861 0.000000 89.965736 -31.038179 1393.832153
16 193.241119 1380.371704 -0.002861 0.000000 89.965736 -31.038179 1393.832153
[bottomMouth]
14 -435.092926 615.759399 -0.000954 -0.000022 0.000016 73.527184 753.966492
15 -435.092926 615.759399 -0.000954 -0.000022 0.000016 73.527184 753.966492
16 -435.092926 615.759399 -0.000954 -0.000022 0.000016 73.527184 753.966492
[L_Mouth01]
14 554.440979 7.658243 838.222046 150.204178 23.759130 109.605339 1005.027161
15 554.440979 7.658243 838.222046 150.204178 23.759130 109.605339 1005.027161
16 554.440979 7.658243 838.222046 150.204178 23.759130 109.605339 1005.027161
[L_mouthFront]
14 551.629089 934.514771 339.150421 0.000081 2.804060 79.119301 1136.941284
15 551.629089 934.514771 339.150421 0.000081 2.804060 79.119301 1136.941284
16 551.629089 934.514771 339.150421 0.000081 2.804060 79.119301 1136.941284
[mouthGun]
14 55.332661 1627.420898 0.000000 0.000023 0.000009 -11.038128 1628.361328
15 55.332661 1627.420898 0.000000 0.000023 0.000009 -11.038128 1628.361328
16 55.332661 1627.420898 0.000000 0.000023 0.000009 -11.038128 1628.361328
[R_Mouth01]
14 554.442383 7.659197 -838.223938 29.795891 -23.759109 109.605331 1005.029541
15 554.442383 7.659197 -838.223938 29.795891 -23.759109 109.605331 1005.029541
16 554.442383 7.659197 -838.223938 29.795891 -23.759109 109.605331 1005.029541
[R_mouthFront]
14 551.629089 934.514282 -339.151367 0.000029 -2.803930 79.119133 1136.941162
15 551.629089 934.514282 -339.151367 0.000029 -2.803930 79.119133 1136.941162
16 551.629089 934.514282 -339.151367 0.000029 -2.803930 79.119133 1136.941162
[TopMouth]
14 461.269867 -56.106091 -0.008583 -0.000059 -0.000268 92.025169 464.669525
15 461.269867 -56.106091 -0.008583 -0.000059 -0.000268 92.025169 464.669525
16 461.269867 -56.106091 -0.008583 -0.000059 -0.000268 92.025169 464.669525
[weapon_bone]
14 -987.239868 1448.372803 0.001431 0.000000 89.965736 -31.038221 1752.833740
15 -987.239868 1448.372803 0.001431 0.000000 89.965736 -31.038221 1752.833740
16 -987.239868 1448.372803 0.001431 0.000000 89.965736 -31.038221 1752.833740
